<?xml version="1.0" standalone="no"?>
<!DOCTYPE svg PUBLIC "-//W3C//DTD SVG 20010904//EN"
 "http://www.w3.org/TR/2001/REC-SVG-20010904/DTD/svg10.dtd">
<svg version="1.0" xmlns="http://www.w3.org/2000/svg"
 width="256.000000pt" height="256.000000pt" viewBox="0 0 256.000000 256.000000"
 preserveAspectRatio="xMidYMid meet">
<metadata>
Created by potrace 1.11, written by Peter Selinger 2001-2013
</metadata>
<g transform="translate(0.000000,256.000000) scale(0.100000,-0.100000)"
fill="#000000" stroke="none">
<path d="M0 1280 l0 -1280 1280 0 1280 0 0 1280 0 1280 -1280 0 -1280 0 0
-1280z m928 890 c49 -30 74 -76 69 -130 l-4 -46 76 -40 c103 -56 103 -75 0
-23 -66 33 -86 39 -99 30 -52 -39 -79 -51 -110 -51 -44 0 -94 30 -120 72 -71
117 71 259 188 188z m627 -472 l85 -42 27 26 c152 146 398 -17 318 -210 -42
-98 -155 -148 -249 -108 l-34 14 -73 -90 c-40 -50 -75 -86 -77 -80 -2 6 26 50
62 98 l66 87 -24 28 c-43 50 -55 120 -35 198 3 10 -25 31 -78 60 -46 25 -83
49 -83 53 0 12 4 11 95 -34z m-408 -1029 l-54 -72 23 -35 c44 -64 22 -149 -48
-192 -117 -71 -259 71 -188 188 37 60 118 90 170 62 16 -9 28 1 81 67 78 94
90 80 16 -18z"/>
</g>
</svg>
