<?xml version="1.0" standalone="no"?>
<!DOCTYPE svg PUBLIC "-//W3C//DTD SVG 20010904//EN"
 "http://www.w3.org/TR/2001/REC-SVG-20010904/DTD/svg10.dtd">
<svg version="1.0" xmlns="http://www.w3.org/2000/svg"
 width="256.000000pt" height="256.000000pt" viewBox="0 0 256.000000 256.000000"
 preserveAspectRatio="xMidYMid meet">
<metadata>
Created by potrace 1.11, written by Peter Selinger 2001-2013
</metadata>
<g transform="translate(0.000000,256.000000) scale(0.100000,-0.100000)"
fill="#000000" stroke="none">
<path d="M0 1280 l0 -1280 1280 0 1280 0 0 1280 0 1280 -1280 0 -1280 0 0
-1280z m1097 520 c36 0 46 -4 50 -19 3 -12 11 -17 19 -14 8 3 12 9 9 13 -15
25 92 27 134 3 32 -19 39 -34 33 -70 -4 -23 -66 -93 -82 -93 -5 0 -22 12 -37
26 -15 14 -23 23 -17 20 12 -6 51 31 41 40 -10 10 -55 -26 -61 -49 -6 -21 -6
-21 -27 8 l-21 30 5 -27 c4 -29 -6 -35 -32 -19 -10 6 -11 13 -2 29 6 12 7 23
2 26 -5 3 -12 -5 -15 -19 -4 -16 -21 -32 -48 -45 -23 -11 -43 -20 -44 -20 -2
0 -14 19 -28 43 -14 23 -26 37 -26 30 0 -9 -10 -8 -36 3 -26 11 -43 12 -62 5
-25 -9 -24 -9 14 -10 44 -1 108 -27 99 -41 -3 -5 -14 -7 -25 -5 -14 3 -20 -2
-20 -16 0 -10 -7 -19 -15 -19 -13 0 -11 -6 6 -29 14 -19 20 -38 17 -55 -3 -15
-1 -23 5 -19 5 3 7 26 3 53 -7 50 9 78 38 67 13 -5 16 -66 7 -158 -5 -56 -106
7 -128 80 -7 22 -13 50 -13 61 0 13 -7 20 -19 20 -11 0 -34 12 -51 26 -24 21
-30 33 -28 57 3 29 7 31 73 47 39 9 77 20 85 25 17 11 117 24 138 18 8 -1 34
-3 59 -3z m373 -69 c0 -5 -7 -15 -17 -22 -9 -8 -28 -40 -43 -72 -18 -38 -30
-52 -34 -42 -3 8 -16 15 -28 15 -17 0 -19 -3 -9 -9 9 -6 11 -18 7 -35 -5 -22
-10 -25 -31 -20 -17 4 -25 2 -25 -6 0 -9 -3 -10 -13 -1 -17 14 -30 2 -17 -14
16 -20 -20 -28 -40 -10 -9 8 -22 32 -29 53 -7 20 -14 42 -17 48 -6 14 21 25
41 18 20 -8 19 -38 -1 -55 -15 -12 -14 -14 7 -19 20 -5 37 7 99 71 42 43 88
81 103 84 15 4 27 11 27 16 0 5 5 9 10 9 6 0 10 -4 10 -9z m-737 -55 c4 -10 1
-13 -9 -9 -15 6 -19 23 -5 23 5 0 11 -7 14 -14z m997 -20 c0 -8 3 -21 6 -30 4
-10 -3 -19 -20 -28 -15 -6 -25 -17 -22 -24 6 -15 -26 -24 -84 -23 -41 1 -42 2
-15 9 21 5 24 8 9 9 -11 0 -31 15 -43 32 -13 18 -19 29 -12 25 6 -4 11 -3 11
3 0 7 8 7 25 1 16 -6 25 -6 25 0 0 6 6 10 14 10 7 0 27 7 42 15 37 19 64 19
64 1z m-938 -30 c48 -37 73 -130 48 -177 -8 -15 -7 -19 4 -19 20 0 36 -31 36
-72 0 -43 -11 -58 -36 -52 -27 7 -48 56 -61 142 -3 17 -9 32 -14 32 -5 0 -9 8
-10 18 0 11 -2 12 -6 4 -3 -7 1 -19 7 -28 7 -8 10 -17 7 -20 -3 -3 5 -37 18
-75 l24 -69 -22 12 c-12 6 -40 29 -61 50 -34 34 -41 37 -55 24 -10 -9 -28 -12
-46 -10 -26 5 -27 4 -12 -6 14 -9 17 -19 12 -37 -3 -15 -2 -22 4 -19 5 4 12 2
16 -4 3 -5 12 -10 18 -10 7 0 4 5 -5 11 -10 5 -18 18 -18 29 0 18 3 17 58 -5
54 -22 58 -25 69 -71 17 -64 13 -70 -21 -43 -18 14 -42 22 -67 22 -39 0 -119
-29 -119 -43 0 -8 -70 -40 -100 -47 -35 -7 -94 -32 -77 -33 10 0 18 -9 19 -22
6 -85 5 -98 -5 -98 -7 0 -6 -4 3 -10 8 -5 12 -11 9 -14 -13 -13 -49 28 -55 62
-4 20 -11 43 -17 50 -14 18 -3 129 19 182 17 42 19 43 25 20 6 -22 7 -20 8 11
1 30 12 47 62 100 34 35 70 81 81 102 14 29 24 37 36 32 9 -3 13 -3 10 1 -4 3
2 15 12 27 11 11 17 23 15 27 -5 8 32 44 55 53 29 12 102 -3 132 -27z m1028 9
c7 -8 19 -15 26 -15 16 0 19 -46 4 -55 -5 -3 -10 -2 -10 3 0 13 -38 3 -47 -11
-4 -6 0 -8 9 -4 12 4 15 0 11 -16 -5 -22 -5 -22 11 -2 l16 20 -7 -20 c-5 -16
-1 -14 20 8 15 15 32 25 38 22 6 -5 3 -13 -10 -22 -12 -8 -21 -22 -21 -31 0
-13 5 -12 20 8 14 17 20 20 21 10 0 -8 5 -4 9 10 5 16 8 19 9 8 1 -11 8 -16
21 -13 22 4 60 -41 63 -74 1 -14 5 -17 13 -10 14 12 29 -5 19 -21 -3 -5 -3
-10 2 -10 4 0 13 -15 19 -32 6 -18 14 -41 19 -50 7 -18 -17 -45 -92 -106 -26
-21 -26 -22 -3 -11 14 7 47 32 75 56 27 23 55 43 62 43 15 0 17 -48 3 -84 -6
-17 -6 -26 0 -26 19 0 50 -40 50 -65 0 -27 -9 -32 -27 -14 -7 7 -17 8 -28 1
-16 -9 -16 -11 4 -31 l21 -21 -21 0 c-14 0 -19 -5 -17 -17 2 -10 11 -16 19
-14 8 2 22 6 32 8 23 7 22 -13 -3 -34 -14 -13 -17 -20 -8 -30 5 -7 8 -23 5
-35 -4 -13 0 -26 10 -33 21 -16 10 -47 -26 -68 -23 -14 -38 -16 -69 -9 -35 8
-101 -3 -118 -21 -3 -2 9 -17 27 -31 21 -18 28 -31 22 -37 -13 -13 -133 -20
-133 -8 0 5 -7 9 -15 9 -8 0 -15 -4 -15 -10 0 -5 -11 -10 -25 -10 -14 0 -25
-4 -25 -10 0 -5 -5 -10 -11 -10 -5 0 -7 5 -4 11 4 6 -2 5 -14 -3 -16 -10 -23
-10 -33 0 -6 6 -26 12 -43 12 -39 0 -45 31 -9 55 23 15 28 15 69 -1 42 -15 99
-15 158 2 28 9 19 22 -18 26 -19 2 -35 1 -35 -3 0 -11 -95 0 -98 11 -3 7 -9 7
-18 -1 -9 -7 -14 -8 -14 -1 0 6 -11 9 -25 6 -19 -3 -25 0 -25 13 0 28 -18 -3
-31 -54 -17 -64 -39 -57 -39 12 0 30 5 55 10 55 6 0 10 -10 10 -22 0 -19 2
-20 10 -8 5 8 10 27 10 42 0 26 -2 27 -42 22 -70 -8 -89 -14 -82 -25 4 -8 10
-7 17 0 13 13 67 15 67 2 0 -6 -5 -13 -10 -16 -6 -3 -8 -24 -5 -46 5 -42 -1
-47 -29 -26 -17 12 -17 14 -2 20 9 4 16 17 15 29 l0 23 -9 -22 c-11 -26 -14
-27 -41 -13 -11 7 -19 21 -19 38 0 21 -2 24 -10 12 -7 -11 -8 -5 -4 20 12 76
15 83 26 72 8 -8 7 -16 -3 -29 -13 -17 -13 -17 4 -4 39 30 157 -5 157 -47 0
-14 2 -14 9 -3 7 11 17 12 47 4 22 -5 66 -10 99 -12 41 -1 70 -9 90 -22 l30
-20 -27 24 c-14 14 -48 33 -75 43 -55 20 -115 62 -108 74 3 5 -3 13 -12 19
-13 7 -15 13 -7 21 8 8 23 4 57 -14 26 -13 49 -21 52 -16 3 5 1 10 -4 12 -6 1
-12 17 -15 35 -5 25 -2 33 11 36 14 4 12 5 -4 6 -15 1 -23 8 -23 19 -1 9 -7
31 -16 47 l-14 30 5 -47 c3 -36 1 -48 -9 -48 -17 0 -30 30 -13 31 7 0 8 2 2 5
-6 2 -9 20 -7 39 3 22 0 35 -7 35 -7 0 -10 -4 -7 -9 3 -5 -8 -8 -25 -7 -16 1
-33 7 -37 13 -5 8 -13 9 -22 3 -8 -5 -26 -6 -39 -3 -17 4 -22 2 -17 -6 4 -6
11 -9 16 -6 5 3 11 1 15 -5 3 -5 -2 -10 -12 -10 -14 -1 -13 -4 7 -15 14 -8 21
-14 16 -15 -5 0 -4 -6 2 -13 8 -9 6 -20 -7 -41 -10 -15 -22 -28 -27 -29 -5 -1
-9 -7 -9 -14 0 -20 -21 -35 -54 -38 -36 -2 -61 -21 -61 -45 0 -24 -28 -46 -41
-33 -15 15 -2 53 16 47 11 -5 12 0 5 24 -4 17 -6 49 -3 71 7 51 0 78 -32 126
-18 25 -21 36 -11 31 46 -18 47 -16 8 10 -38 26 -42 32 -37 59 9 46 26 85 35
80 4 -3 11 6 14 20 3 13 17 41 31 61 14 20 25 42 26 48 0 6 4 2 9 -9 7 -17 9
-16 9 10 1 20 4 26 9 17 11 -16 42 -5 42 15 0 9 6 13 15 9 8 -3 15 -1 15 3 0
5 29 11 65 13 61 3 78 -3 55 -17 -5 -3 -10 -11 -10 -17 0 -7 6 -6 15 2 8 7 15
19 15 26 0 8 4 14 9 14 5 0 13 9 16 20 7 23 53 80 65 80 4 0 13 -7 20 -15z
m-658 -44 c5 -14 11 -37 12 -51 2 -16 15 -32 34 -43 28 -16 36 -17 69 -6 21 7
45 19 54 26 8 7 20 13 26 13 6 0 14 6 16 13 8 19 7 -61 -2 -120 -4 -29 -6 -53
-5 -53 8 0 54 116 50 126 -3 7 0 14 6 16 5 2 12 25 15 51 6 52 23 75 23 30 0
-32 -23 -98 -69 -195 -32 -69 -43 -85 -34 -48 8 29 -16 25 -27 -4 -5 -13 -14
-27 -19 -31 -6 -3 -11 -19 -11 -34 0 -26 -4 -29 -55 -40 -38 -9 -67 -23 -92
-46 -49 -45 -101 -55 -125 -25 -20 25 -24 90 -6 108 9 9 7 13 -5 18 -10 4 -17
17 -17 33 1 25 1 25 15 -8 13 -28 19 -32 38 -26 12 3 42 12 67 18 l45 11 -34
6 c-37 6 -66 39 -42 47 11 5 11 7 0 14 -8 5 3 6 26 2 35 -6 38 -4 28 9 -7 8
-9 19 -5 23 4 5 1 5 -6 1 -7 -4 -15 0 -19 11 -4 10 -10 21 -15 24 -5 3 -11 33
-14 67 -3 52 -1 63 16 75 30 21 51 17 62 -12z m-255 -166 c-13 -12 -17 -12
-31 4 -34 38 -15 71 21 35 21 -21 22 -26 10 -39z m83 4 c0 -6 -7 -9 -15 -5
-17 6 -20 -5 -4 -21 7 -7 7 -13 1 -17 -6 -3 -13 -2 -17 4 -3 5 -11 10 -16 10
-6 0 -3 -7 6 -16 9 -10 14 -25 12 -35 -3 -11 -1 -22 4 -25 15 -9 10 -42 -8
-53 -16 -9 -15 -10 5 -8 12 1 22 7 22 15 0 7 5 12 12 10 8 -3 11 -21 9 -52 -1
-27 3 -53 10 -62 8 -10 9 -18 2 -25 -7 -7 -16 -4 -27 12 -17 25 -21 49 -8 49
5 0 9 6 9 14 0 11 -4 12 -18 3 -13 -8 -15 -16 -8 -33 5 -14 4 -26 -1 -29 -14
-9 -50 4 -50 18 0 7 -4 6 -10 -3 -8 -13 -10 -13 -10 2 0 11 -5 15 -14 12 -9
-4 -19 10 -30 42 -9 26 -14 49 -13 51 2 2 23 -4 47 -12 50 -18 50 -18 50 -6 0
5 -10 11 -22 13 -16 2 -22 9 -20 23 1 11 4 38 5 60 3 34 8 42 37 57 40 21 60
23 60 7z m-260 -81 c0 -7 -23 4 -59 28 -1 2 0 8 4 14 5 8 15 4 31 -11 13 -12
24 -26 24 -31z m260 18 c0 -8 -4 -18 -10 -21 -5 -3 -10 3 -10 14 0 12 5 21 10
21 6 0 10 -6 10 -14z m-179 -78 c7 -13 18 -46 25 -75 10 -45 10 -51 -3 -46 -8
3 -19 0 -25 -8 -8 -11 -9 -11 -5 2 3 9 0 34 -7 55 -25 75 -28 94 -12 94 9 0
21 -10 27 -22z m-62 -74 c48 -40 40 -91 -15 -97 -16 -2 -44 -11 -61 -21 -38
-19 -41 -11 -17 40 10 21 26 37 41 40 16 4 21 10 15 16 -17 17 -68 -27 -94
-78 -13 -27 -41 -59 -65 -77 -24 -17 -43 -34 -43 -39 0 -5 -4 -7 -9 -4 -5 3
-14 0 -20 -8 -6 -7 -21 -13 -34 -12 -20 1 -23 8 -29 71 -9 84 -7 91 27 99 37
9 113 45 154 73 48 32 110 31 150 -3z m618 -21 c59 -55 80 -123 53 -173 -7
-13 -7 -21 0 -25 6 -4 7 -11 4 -17 -4 -7 -9 -6 -14 2 -5 8 -15 4 -35 -14 -15
-14 -33 -26 -39 -26 -6 1 0 10 14 21 85 71 80 149 -15 232 -21 19 -25 26 -14
27 9 0 30 -12 46 -27z m-83 -13 c-5 11 -1 10 13 -3 21 -18 21 -18 25 0 3 14 8
11 22 -16 21 -39 16 -96 -12 -139 -9 -14 -17 -42 -17 -62 0 -28 -4 -35 -20
-35 -13 0 -21 8 -23 24 -2 15 0 21 7 17 7 -5 11 2 11 17 0 13 9 42 20 65 11
22 20 56 19 74 l-1 33 -7 -31 c-10 -39 -61 -144 -71 -144 -4 0 -13 7 -21 16
-7 9 -39 29 -71 45 -59 30 -64 36 -70 74 -3 23 23 28 57 11 21 -10 105 -17
105 -8 0 3 -8 14 -17 24 -16 18 -16 19 12 8 23 -8 27 -8 19 0 -7 7 -9 20 -7
31 5 19 6 19 20 2 8 -10 11 -12 7 -3z m426 -41 c0 -5 -14 -9 -32 -9 -30 0 -30
1 -13 14 19 14 45 11 45 -5z m-314 -33 c8 -34 -11 -88 -41 -116 -31 -30 -34
-6 -3 27 15 16 21 36 22 68 1 49 12 59 22 21z m266 -102 c15 -8 30 -20 34 -26
5 -8 1 -8 -10 1 -10 9 -35 14 -60 12 -36 -1 -42 1 -42 18 0 17 5 19 26 14 14
-3 37 -12 52 -19z m118 16 c0 -5 -4 -10 -9 -10 -6 0 -13 5 -16 10 -3 6 1 10 9
10 9 0 16 -4 16 -10z m-145 -50 c4 -7 -8 -10 -34 -9 -23 2 -41 7 -41 11 0 12
68 10 75 -2z m28 -31 c-4 -15 -8 -17 -14 -8 -8 14 -3 29 11 29 4 0 6 -9 3 -21z
m75 -23 c3 -14 -2 -17 -24 -14 -26 3 -41 29 -27 51 7 12 47 -17 51 -37z m-501
12 c-3 -8 -6 -5 -6 6 -1 11 2 17 5 13 3 -3 4 -12 1 -19z m157 -30 c-8 -13 -21
-9 -28 8 -9 25 4 37 19 17 7 -10 11 -21 9 -25z m-164 -18 c7 -13 7 -21 -2 -26
-6 -4 -8 -3 -4 4 3 6 -1 17 -9 25 -8 9 -15 18 -15 22 0 11 19 -5 30 -25z m95
-17 c-8 -8 -19 -12 -24 -9 -5 4 -12 0 -14 -6 -4 -9 -6 -10 -6 -1 -1 6 8 18 19
26 11 8 17 18 12 23 -4 4 1 2 10 -5 15 -11 16 -15 3 -28z m-15 -33 c0 -5 -7
-10 -15 -10 -9 0 -12 -6 -9 -15 5 -11 2 -13 -10 -9 -20 8 -20 9 0 28 18 18 34
21 34 6z m746 -35 c-27 -21 -53 -20 -36 0 7 8 22 15 34 15 21 -1 21 -1 2 -15z
m-681 -8 c3 -4 2 -5 -2 -2 -3 3 -12 0 -18 -5 -15 -12 -48 -2 -39 11 6 10 50 7
59 -4z m48 -14 c-7 -2 -19 -2 -25 0 -7 3 -2 5 12 5 14 0 19 -2 13 -5z m90 -43
c0 -3 -14 -35 -33 -73 -35 -68 -52 -79 -73 -46 -8 13 0 28 38 73 43 49 63 63
68 46z m-242 -17 c13 -17 13 -17 -6 -3 -11 8 -22 16 -24 17 -2 2 0 3 6 3 6 0
17 -8 24 -17z m123 -49 c-18 -15 -18 -15 0 -10 14 5 16 3 9 -6 -6 -7 -12 -20
-15 -28 -4 -12 -7 -10 -16 7 -10 17 -9 25 4 37 8 9 20 16 27 16 6 0 2 -7 -9
-16z"/>
<path d="M1246 1765 c4 -8 8 -15 10 -15 2 0 4 7 4 15 0 8 -4 15 -10 15 -5 0
-7 -7 -4 -15z"/>
<path d="M1024 1762 c-6 -4 -7 -17 -3 -32 4 -14 8 -23 9 -20 3 9 9 60 7 60 -1
0 -7 -4 -13 -8z"/>
<path d="M1695 1650 c3 -5 10 -10 16 -10 5 0 9 5 9 10 0 6 -7 10 -16 10 -8 0
-12 -4 -9 -10z"/>
<path d="M620 1610 c-13 -8 -12 -10 3 -10 9 0 17 5 17 10 0 12 -1 12 -20 0z"/>
<path d="M750 1559 c0 -12 -4 -18 -11 -13 -7 4 -10 1 -7 -7 3 -8 12 -13 22
-11 9 2 16 -3 16 -9 0 -7 3 -9 6 -6 4 4 1 13 -6 22 -20 24 -2 31 23 8 12 -11
29 -23 37 -28 8 -4 -3 9 -25 29 -47 41 -55 43 -55 15z"/>
<path d="M585 1498 c3 -13 -1 -37 -9 -53 -18 -35 -20 -45 -6 -45 6 0 9 3 8 8
-4 15 13 50 27 56 7 2 26 -5 42 -16 l28 -21 -25 24 c-14 13 -35 34 -48 47
l-23 24 6 -24z"/>
<path d="M461 1328 c0 -21 4 -38 9 -38 18 0 11 -30 -15 -64 -21 -28 -22 -32
-6 -32 12 0 17 6 14 16 -3 9 3 22 11 29 9 8 16 24 16 38 0 28 20 38 55 29 l26
-7 -22 -32 -22 -32 24 25 c13 14 33 33 44 43 20 18 20 18 0 9 -15 -8 -30 -5
-58 8 -29 15 -37 15 -37 4 0 -21 -28 -5 -33 19 -2 13 -5 6 -6 -15z"/>
<path d="M680 1306 c0 -2 8 -10 18 -17 15 -13 16 -12 3 4 -13 16 -21 21 -21
13z"/>
<path d="M391 1245 c0 -12 -5 -26 -11 -33 -5 -7 -3 -6 6 2 9 7 14 22 11 32 -4
17 -5 17 -6 -1z"/>
<path d="M1781 1495 c0 -21 28 -78 29 -59 0 7 -7 27 -15 45 -10 24 -14 28 -14
14z"/>
<path d="M1879 1493 c-13 -16 -12 -17 4 -4 9 7 17 15 17 17 0 8 -8 3 -21 -13z"/>
<path d="M1930 1416 c0 -7 -9 -26 -21 -42 l-21 -29 26 28 c23 25 35 57 21 57
-3 0 -5 -6 -5 -14z"/>
<path d="M1969 1393 c-13 -15 -12 -15 9 -4 23 12 28 21 13 21 -5 0 -15 -7 -22
-17z"/>
<path d="M1930 1340 c-6 -11 -8 -20 -6 -20 3 0 10 9 16 20 6 11 8 20 6 20 -3
0 -10 -9 -16 -20z"/>
<path d="M1873 1285 c0 -8 4 -15 9 -15 4 0 8 4 8 9 0 6 -4 12 -8 15 -5 3 -9
-1 -9 -9z"/>
<path d="M1510 1179 c0 -4 7 -26 15 -50 10 -26 12 -45 6 -49 -6 -3 -6 -11 -2
-18 6 -10 15 -9 39 5 38 22 41 45 7 67 -14 9 -25 14 -25 10 0 -3 -9 4 -20 17
-10 13 -19 21 -20 18z"/>
<path d="M1931 1156 c-9 -11 -8 -15 5 -20 9 -4 19 -4 22 -1 3 3 0 5 -8 5 -10
0 -10 3 0 15 7 8 8 15 2 15 -5 0 -15 -6 -21 -14z"/>
<path d="M1800 929 c7 -11 14 -18 17 -15 8 8 -5 36 -17 36 -7 0 -7 -6 0 -21z"/>
<path d="M1120 1597 c0 -4 7 -21 15 -37 15 -29 35 -40 35 -20 0 6 -4 10 -10
10 -5 0 -16 12 -24 28 -8 15 -15 23 -16 19z"/>
<path d="M1245 1310 c-18 -8 -17 -9 8 -9 16 -1 26 3 22 9 -3 6 -7 10 -8 9 -1
0 -11 -4 -22 -9z"/>
<path d="M1273 1275 c0 -8 4 -15 9 -15 4 0 8 4 8 9 0 6 -4 12 -8 15 -5 3 -9
-1 -9 -9z"/>
<path d="M585 1169 c-8 -15 -27 -37 -41 -48 -16 -13 -21 -21 -12 -21 16 0 58
41 58 57 0 6 10 17 22 25 18 12 19 15 4 15 -9 0 -24 -13 -31 -28z"/>
</g>
</svg>
