<svg version="1" xmlns="http://www.w3.org/2000/svg" width="346.667" height="346.667" viewBox="0 0 260.000000 260.000000"><path d="M0 130v130h260V0H0v130zM75.6 17.9c2.3 1 5.4 3.6 7 5.7 2.6 3.3 2.9 4.6 2.9 11.2.1 5.8.5 7.7 1.8 8.7 2.5 1.8 2.1 2.6-.8 1.3-2.2-1-2.9-.8-5.3 1.5C77.8 49.6 72 52 67.8 52c-4.9-.1-11.2-3.3-14.4-7.6-2.5-3.3-2.9-4.6-2.9-10.4 0-5.8.4-7.1 2.9-10.4C56.7 19.2 62.9 16 68 16c1.9 0 5.4.9 7.6 1.9zm120 52.9c9.2 4.7 15 14.8 14.2 24.9-.7 9.6-5.6 17-14.2 21.6-5.4 2.9-17.5 3-22.5.4-3.3-1.8-3.3-1.8-5.7.4-2.7 2.5-2.9 2.2-1.2-1.6 1-2.2.8-2.9-1.4-5.3-5.7-6-8.1-15.8-5.9-23.7 1.1-3.8 1-4.1-1.6-6.2-2.8-2.3-1.7-3.1 1.7-1.3 1.6.8 2.7.2 6.8-3.9 8.1-8.1 20.2-10.2 29.8-5.3zM96 209.5c-1 1.2-.7 2.3 1.5 5.5 8.1 11.7.7 27.4-13.4 28.8-6.3.6-12.8-2.3-16.7-7.4-2.6-3.3-2.9-4.5-2.9-10.9 0-6.3.3-7.6 2.9-10.9 5.1-6.7 14.5-9.3 22.1-6.2 3.1 1.3 3.5 1.3 5.1-.6 2.1-2.2 3.3-.6 1.4 1.7z"/></svg>