<svg id="dfc2950c-5de3-45e8-9a34-1b2c2a9413e8" data-name="5080b921-26e6-4416-8fb3-5ed5b48c4140" xmlns="http://www.w3.org/2000/svg" viewBox="0 0 1598.02706 2063.79376"><title>ap</title><path d="M1421.38694,199.80357C1368.27444,146.69123,1117.88785,0,1021.77973,0S799.21365,80.93309,720.81,113.81216c-78.40409,32.87907-91.04988,32.87907-91.04988,32.87907-40.4667,10.11664-25.29159,15.175-55.64142,45.52487-32.87915,30.3499-58.17074,42.9957-139.10375,65.75814-78.40409,25.2916-141.63307,32.87908-161.866,50.58319-17.704,15.175-7.58755,22.76242-17.704,37.93738-10.11648,17.70411-12.64579,7.58748-22.76227,27.82076s2.52931,78.40394-7.58756,116.34133c-7.58755,35.40822-20.23335,17.70413-25.29159,53.11235S235.21149,619.644,240.27011,667.698c5.05824,48.054-5.05824,78.40394-5.05824,134.04542s40.4667,207.39106,25.29159,313.61566-108.75392,40.46651-146.6913,22.76247S0,1145.709,0,1145.709l5.05824,37.93739s12.6458-10.11668,68.28722-12.6458S184.6283,1239.288,265.5617,1216.52548c58.17074-15.17492,96.10812-106.2247,98.63705-174.512,2.52932-55.64152,10.11648-202.33273,10.11648-209.92018s15.17511-10.11668,15.17511-10.11668,12.6458,37.93739,22.76228,27.82071c10.11648-7.58745,25.29159-63.229,32.87915-73.3456s65.75829-40.46655,98.637-68.28731c32.87915-27.82076,35.40808-53.11235,53.1125-53.11235,17.704,0,80.933,45.52484,103.69568,53.11235,22.76227,7.58745,32.87914,0,37.93738,10.11662,5.05824,7.58746,113.81216,384.4322,113.81216,392.01966s37.93739,68.28731,48.05387,88.52057c10.11648,17.70413-37.93739,151.74954-45.52494,202.33272-116.34147,58.17064-189.68693,177.04114-189.68693,311.08665v2.52912c0,194.74517,154.27886,349.024,364.19875,349.024,209.92028,0,364.19875-156.80778,364.19875-351.55314v-2.52913c0-123.92883-63.229-232.68265-164.39534-295.91163,22.76228-12.64579,10.11648-25.29159-20.23335-45.52484s-20.23335-166.92446-2.52931-202.33273,113.81216-338.90735,141.63306-356.61143c27.82091-15.175,37.93739-37.93739,83.46233-68.28732s75.87477-78.40394,78.40408-68.28731-20.23335,151.74959-15.17511,214.97857c7.58756,63.229,70.81654,235.21177,70.81654,235.21177s-35.40808-171.9828-42.99563-242.79933c-7.58756-68.28731,25.29159-154.27871,68.28722-308.55742C1633.83653,419.84042,1471.97012,250.38674,1421.38694,199.80357ZM1201.35017,1709.71149h0c0,98.63725-68.28721,182.09938-171.98289,182.09938s-171.98289-85.99145-171.98289-182.09938v-2.52912c0-98.63724,68.28721-179.57025,171.98289-179.57025C1130.53364,1527.61212,1201.35017,1613.60347,1201.35017,1709.71149Z" style="fill:#b2b2b2"/></svg>