<?xml version="1.0" encoding="utf-8"?>
<!-- Generator: Adobe Illustrator 22.1.0, SVG Export Plug-In . SVG Version: 6.00 Build 0)  -->
<svg version="1.1" id="Capa_1" xmlns="http://www.w3.org/2000/svg" xmlns:xlink="http://www.w3.org/1999/xlink" x="0px" y="0px"
	 viewBox="0 0 115.2 40.4" style="enable-background:new 0 0 115.2 40.4;" xml:space="preserve">
<style type="text/css">
	.st0{fill:#989898;}
</style>
<g>
	<path class="st0" d="M5.6,12.3h3.5l5.6,13.3h-3.9l-1-2.4H4.8l-0.9,2.4H0L5.6,12.3z M8.9,20.4l-1.5-3.8l-1.5,3.8H8.9z"/>
	<path class="st0" d="M16.5,12.4h3.4l5.5,7v-7H29v13.3h-3.2l-5.7-7.3v7.3h-3.6V12.4z"/>
	<path class="st0" d="M31.8,12.4h3.7v13.3h-3.7V12.4z"/>
	<path class="st0" d="M38.3,12.4h3.9l3.2,5.1l3.2-5.1h3.9v13.3h-3.7V18l-3.4,5.2h-0.1l-3.4-5.2v7.6h-3.6V12.4z"/>
	<path class="st0" d="M59.7,12.3h3.5l5.6,13.3h-3.9l-1-2.4h-5.1l-0.9,2.4h-3.9L59.7,12.3z M62.9,20.4l-1.5-3.8l-1.5,3.8H62.9z"/>
	<path class="st0" d="M70.5,12.4h3.7v10h6.4v3.2H70.5V12.4z"/>
	<path class="st0" d="M16.4,26.9h5.7c3.4,0,5.5,1.7,5.5,4.7v0c0,3.1-2.4,4.8-5.7,4.8h-1.8v3.8h-3.7V26.9z M21.8,33.5
		c1.3,0,2.1-0.7,2.1-1.7v0c0-1.1-0.8-1.7-2.1-1.7h-1.7v3.5H21.8z"/>
	<path class="st0" d="M29.1,33.5L29.1,33.5c0-3.8,3.1-6.9,7.2-6.9c4.1,0,7.1,3,7.1,6.9v0c0,3.8-3.1,6.9-7.2,6.9
		C32.1,40.4,29.1,37.3,29.1,33.5z M39.6,33.5L39.6,33.5c0-1.9-1.4-3.6-3.4-3.6c-2,0-3.4,1.6-3.4,3.5v0c0,1.9,1.4,3.6,3.4,3.6
		C38.3,37.1,39.6,35.5,39.6,33.5z"/>
	<path class="st0" d="M45.1,26.9h3.7v10h6.4v3.2H45.1V26.9z"/>
	<path class="st0" d="M57.2,26.9h3.7v13.3h-3.7V26.9z"/>
	<path class="st0" d="M66.9,30.1h-4v-3.2h11.6v3.2h-4v10h-3.7V30.1z"/>
	<path class="st0" d="M76.6,26.9h3.7v13.3h-3.7V26.9z"/>
	<path class="st0" d="M82.7,33.5L82.7,33.5c0-3.9,3-6.9,7-6.9c2.7,0,4.4,1.1,5.6,2.8l-2.8,2.1c-0.8-0.9-1.6-1.6-2.9-1.6
		c-1.9,0-3.2,1.6-3.2,3.5v0c0,2,1.3,3.5,3.2,3.5c1.4,0,2.2-0.6,3-1.6l2.8,2c-1.2,1.7-2.9,3-5.9,3C85.7,40.4,82.7,37.5,82.7,33.5z"/>
	<g>
		<path class="st0" d="M111.7,3.9c-1-1-5.9-3.9-7.8-3.9C102,0,99.5,1.6,98,2.2c-1.5,0.7-1.8,0.7-1.8,0.7c-0.8,0.2-0.5,0.3-1.1,0.9
			c-0.6,0.6-1.2,0.8-2.7,1.3c-1.5,0.5-2.8,0.7-3.2,1c-0.4,0.3-0.2,0.4-0.3,0.8c-0.2,0.3-0.3,0.2-0.5,0.5c-0.2,0.4,0,1.6-0.1,2.3
			c-0.2,0.7-0.4,0.3-0.5,1c-0.1,0.7,0.7,1.5,0.8,2.4c0.1,0.9-0.1,1.5-0.1,2.6c0,1.1,0.8,4.1,0.5,6.1c-0.3,2.1-2.1,0.8-2.9,0.5
			c-0.8-0.4-2.2,0.1-2.2,0.1l0.1,0.8c0,0,0.3-0.2,1.3-0.3c1.1-0.1,2.2,1.3,3.8,0.9c1.1-0.3,1.9-2.1,1.9-3.4c0-1.1,0.2-4,0.2-4.1
			c0-0.2,0.3-0.2,0.3-0.2s0.2,0.7,0.4,0.6c0.2-0.2,0.5-1.3,0.6-1.4c0.1-0.2,1.3-0.8,1.9-1.3c0.6-0.6,0.7-1,1-1c0.3,0,1.6,0.9,2,1
			c0.4,0.1,0.6,0,0.7,0.2c0.1,0.2,2.2,7.5,2.2,7.7c0,0.1,0.7,1.3,0.9,1.7c0.2,0.3-0.8,3-0.9,4c-2.3,1.2-3.7,3.4-3.7,6.1v0
			c0,3.8,3,6.9,7.1,6.9c4.1,0,7.2-3.1,7.2-6.9v0c0-2.4-1.2-4.6-3.2-5.8c0.4-0.2,0.2-0.5-0.4-0.9c-0.6-0.4-0.4-3.3-0.1-4
			c0.3-0.7,2.2-6.7,2.8-7c0.6-0.3,0.7-0.8,1.7-1.3c0.9-0.6,1.5-1.6,1.5-1.3c0,0.2-0.4,2.9-0.3,4.2c0.1,1.3,1.4,4.6,1.4,4.6
			s-0.7-3.4-0.8-4.7c-0.1-1.4,0.5-3,1.3-6C115.9,8.2,112.7,4.9,111.7,3.9z M107.4,33.5L107.4,33.5c0,2-1.3,3.6-3.4,3.6
			c-2,0-3.4-1.7-3.4-3.6v0c0-1.9,1.3-3.5,3.4-3.5C106,29.9,107.4,31.6,107.4,33.5z"/>
	</g>
</g>
</svg>
