<svg id="81f46366-bd90-41e8-83b9-31f8a5e5db5a" data-name="Capa 1" xmlns="http://www.w3.org/2000/svg" viewBox="0 0 228.87061 295.54719"><title>apmono</title><path d="M203.30334,28.47976C195.85847,20.93113,160.10346-.13791,146.31484.00068c-13.781.14389-31.79712,11.48236-43.10759,16.37121-11.30892,4.885-12.9267,4.82881-12.9267,4.82881-5.72253,1.42467-3.52017,2.11164-8.128,6.415-4.59569,4.30254-8.50829,5.9884-19.76414,9.45724-11.268,3.46712-20.426,4.77965-23.14646,7.11759-2.71144,2.3381-1.11786,3.20375-2.413,5.58931-1.2981,2.39037-1.86471,1.15587-3.37639,3.94207-1.51169,2.785.22118,11.35591-.96943,16.584-1.19355,5.22807-2.92485,2.53338-3.70646,7.57516-.77554,5.03729,5.11515,10.70912,5.88776,17.623.78157,6.91487-.79076,11.322-.85125,19.22268-.0698,7.90089,5.877,29.78785,3.74586,44.91165-2.13723,15.12457-15.60773,5.95444-21.191,3.32939C10.78775,160.35189,0,163.9144,0,163.9144L.74514,169.531s1.87231-1.35254,9.79429-1.89635c7.92043-.54226,16.07274,9.626,27.53615,6.60573,8.17651-2.15553,13.88247-15.12767,14.21719-24.84084.26818-7.93641,1.386-28.93119,1.42544-30.14382.04234-1.21776,2.27652-1.34805,2.27652-1.34805s1.642,5.32873,3.09923,4.16325c1.46017-1.168,3.55507-9.20425,4.61537-10.58642,1.06171-1.38217,9.517-5.75373,14.12025-9.85711,4.58809-4.09733,5.11222-7.52661,7.54941-7.6403,2.43256-.12114,11.51942,6.66778,14.7368,7.58881,3.2126.92165,4.65463.156,5.42412,1.39953.7695,1.24288,16.16209,55.05431,16.33178,56.07679.16519,1.01626,5.34548,9.70479,6.86632,12.59491,1.339,2.5371-5.54542,21.91194-6.37089,28.969a49.71854,49.71854,0,0,0-27.32274,44.50418v.27423c0,27.84063,22.16042,50.15259,52.07934,50.15259,29.92947,0,52.36412-22.58619,52.36412-50.42682v-.27407a49.19358,49.19358,0,0,0-23.56771-42.28211c3.084-1.72077,1.32384-3.60347-3.03857-6.38455-4.36086-2.78108-2.82186-23.94184-.41646-29.12663,2.39781-5.18944,16.24088-48.69318,20.36846-50.97807,4.12912-2.2956,5.45452-5.4947,12.08151-9.72682,6.62838-4.23367,10.72571-11.38709,11.07873-9.75334.33769,1.63049-2.96442,21.578-2.06464,30.7261.91188,9.14982,10.2092,33.57776,10.2092,33.57776s-5.0334-24.68542-6.11481-34.65467c-1.08157-9.96088,3.57616-21.965,9.80468-44.04289C234.04327,60.124,210.74821,36.02918,203.30334,28.47976ZM172.05608,245.12037v.27423c0,13.99306-9.83214,25.90178-24.637,25.90178-14.69585,0-24.80656-12.18745-24.80656-26.176v-.27407c0-13.99306,9.82438-25.91093,24.51123-25.91093C161.93777,218.93537,172.05608,231.132,172.05608,245.12037Z" style="fill:#f7f5f5"/></svg>